<?xml version="1.0" encoding="UTF-8" standalone="no"?>
<!-- Generator: Adobe Illustrator 19.0.0, SVG Export Plug-In . SVG Version: 6.00 Build 0)  -->

<svg
   xmlns:dc="http://purl.org/dc/elements/1.1/"
   xmlns:cc="http://creativecommons.org/ns#"
   xmlns:rdf="http://www.w3.org/1999/02/22-rdf-syntax-ns#"
   xmlns:svg="http://www.w3.org/2000/svg"
   xmlns="http://www.w3.org/2000/svg"
   xmlns:sodipodi="http://sodipodi.sourceforge.net/DTD/sodipodi-0.dtd"
   xmlns:inkscape="http://www.inkscape.org/namespaces/inkscape"
   version="1.1"
   id="Layer_1"
   x="0px"
   y="0px"
   viewBox="0 0 353.81699 294.418"
   xml:space="preserve"
   inkscape:version="0.91 r13725"
   sodipodi:docname="hamburger2.svg"
   width="353.81699"
   height="294.418"><metadata
     id="metadata3640"><rdf:RDF><cc:Work
         rdf:about=""><dc:format>image/svg+xml</dc:format><dc:type
           rdf:resource="http://purl.org/dc/dcmitype/StillImage" /><dc:title></dc:title></cc:Work></rdf:RDF></metadata><defs
     id="defs3638" /><sodipodi:namedview
     pagecolor="#ffffff"
     bordercolor="#666666"
     borderopacity="1"
     objecttolerance="10"
     gridtolerance="10"
     guidetolerance="10"
     inkscape:pageopacity="0"
     inkscape:pageshadow="2"
     inkscape:window-width="1440"
     inkscape:window-height="807"
     id="namedview3636"
     showgrid="false"
     fit-margin-top="0"
     fit-margin-left="0"
     fit-margin-right="0"
     fit-margin-bottom="0"
     inkscape:zoom="1.1347656"
     inkscape:cx="176.909"
     inkscape:cy="147.211"
     inkscape:window-x="0"
     inkscape:window-y="25"
     inkscape:window-maximized="1"
     inkscape:current-layer="Layer_1" /><path
     style="fill:#88b72e"
     d="m 52.86,226.309 c 0.092,0 0.182,-0.012 0.27,-0.012 0.092,0 0.178,0.012 0.271,0.012 l -0.541,0 z"
     id="path3510"
     inkscape:connector-curvature="0" /><path
     style="fill:#88b72e"
     d="m 84.347,197.58 c -0.09,0 -0.184,0.012 -0.273,0.014 -0.09,-0.002 -0.176,-0.014 -0.266,-0.014 l 0.539,0 z"
     id="path3512"
     inkscape:connector-curvature="0" /><path
     style="fill:#88b72e"
     d="m 114.749,226.309 c 0.09,0 0.18,-0.012 0.273,-0.012 0.09,0 0.176,0.012 0.266,0.012 l -0.539,0 z"
     id="path3514"
     inkscape:connector-curvature="0" /><path
     style="fill:#88b72e"
     d="m 146.237,197.58 c -0.098,0 -0.184,0.012 -0.273,0.014 -0.094,-0.002 -0.178,-0.014 -0.273,-0.014 l 0.546,0 z"
     id="path3516"
     inkscape:connector-curvature="0" /><path
     style="fill:#88b72e"
     d="m 176.636,226.309 c 0.094,0 0.18,-0.012 0.271,-0.012 0.096,0 0.182,0.012 0.271,0.012 l -0.542,0 z"
     id="path3518"
     inkscape:connector-curvature="0" /><path
     style="fill:#88b72e"
     d="m 208.124,197.58 c -0.094,0 -0.18,0.012 -0.272,0.014 -0.092,-0.002 -0.18,-0.014 -0.271,-0.014 l 0.543,0 z"
     id="path3520"
     inkscape:connector-curvature="0" /><path
     style="fill:#5e2506"
     d="m 337.981,185.503 c 0,3.068 -2.486,5.555 -5.553,5.555 l -311.038,0 c -3.068,0 -5.555,-2.486 -5.555,-5.555 l 0,0 c 0,-3.069 2.486,-5.556 5.555,-5.556 l 311.039,0 c 3.066,0 5.552,2.487 5.552,5.556 l 0,0 z"
     id="path3522"
     inkscape:connector-curvature="0" /><path
     style="fill:#d86b35"
     d="m 176.909,0 0,0 -0.002,0 C 79.206,0 10e-4,35.814 10e-4,106.315 l 353.816,0 C 353.817,35.814 274.612,0 176.909,0 Z"
     id="path3524"
     inkscape:connector-curvature="0" /><path
     style="fill:#d86b35"
     d="m 176.909,294.418 0,0 -0.002,0 C 79.206,294.418 10e-4,282.479 10e-4,211.977 l 353.816,0 c 0,70.502 -79.205,82.441 -176.908,82.441 z"
     id="path3526"
     inkscape:connector-curvature="0" /><path
     style="fill:#8c2e14"
     d="m 353.817,158.257 c 0,11.979 -9.713,21.69 -21.691,21.69 l -310.438,0 C 9.709,179.947 0,170.235 0,158.257 l 0,0 c 0,-11.979 9.709,-21.688 21.688,-21.688 l 310.438,0 c 11.978,-10e-4 21.691,9.709 21.691,21.688 l 0,0 z"
     id="path3528"
     inkscape:connector-curvature="0" /><path
     style="fill:#4b680c"
     d="m 27.438,127.181 298.939,0 c 11.533,0 20.885,-9.351 20.885,-20.886 l -340.708,0 c 0,11.535 9.349,20.886 20.884,20.886 z"
     id="path3530"
     inkscape:connector-curvature="0" /><path
     style="fill:#4b680c"
     d="m 27.438,191.058 298.939,0 c 11.533,0 20.885,9.349 20.885,20.886 l -340.708,0 c 0,-11.538 9.349,-20.886 20.884,-20.886 z"
     id="path3532"
     inkscape:connector-curvature="0" /><rect
     x="34.473003"
     y="127.19701"
     style="fill:#db4619"
     width="142.26601"
     height="9.3710003"
     id="rect3534" /><rect
     x="199.147"
     y="127.19701"
     style="fill:#db4619"
     width="120.193"
     height="9.3710003"
     id="rect3536" /><path
     style="fill:#dbb538"
     d="m 145.073,136.568 -27.131,0 -14.189,0 -14.184,0 -27.135,0 -40.049,0 75.045,58.91 0.002,-0.014 c 1.771,1.311 3.949,2.1 6.32,2.1 2.375,0 4.555,-0.789 6.322,-2.1 l 0.004,0.014 75.045,-58.91 -40.05,0 z"
     id="path3538"
     inkscape:connector-curvature="0" /><path
     style="fill:#dbb538"
     d="m 291.382,136.568 -27.133,0 -14.188,0 -14.186,0 -27.135,0 -40.049,0 75.049,58.91 0,-0.014 c 1.771,1.311 3.951,2.1 6.32,2.1 2.377,0 4.551,-0.789 6.318,-2.1 l 0.006,0.014 75.043,-58.91 -40.045,0 z"
     id="path3540"
     inkscape:connector-curvature="0" /><path
     style="fill:#88b72e"
     d="m 22.184,120.673 c 8.568,-0.134 15.473,-6.503 15.473,-14.352 l -30.943,0 c 0,7.849 6.904,14.218 15.47,14.352 z"
     id="path3542"
     inkscape:connector-curvature="0" /><path
     style="fill:#88b72e"
     d="m 53.13,91.97 c -8.566,0.134 -15.473,6.503 -15.473,14.352 l 30.943,0 C 68.6,98.473 61.698,92.103 53.13,91.97 Z"
     id="path3544"
     inkscape:connector-curvature="0" /><path
     style="fill:#88b72e"
     d="m 84.073,120.673 c 8.57,-0.134 15.473,-6.503 15.473,-14.352 l -30.945,0 c -0.001,7.849 6.904,14.218 15.472,14.352 z"
     id="path3546"
     inkscape:connector-curvature="0" /><path
     style="fill:#88b72e"
     d="m 115.022,91.97 c -8.572,0.134 -15.477,6.503 -15.477,14.352 l 30.945,0 c 0.001,-7.849 -6.903,-14.219 -15.468,-14.352 z"
     id="path3548"
     inkscape:connector-curvature="0" /><path
     style="fill:#88b72e"
     d="m 145.964,120.673 c 8.568,-0.134 15.471,-6.503 15.471,-14.352 l -30.943,0 c -10e-4,7.849 6.901,14.218 15.472,14.352 z"
     id="path3550"
     inkscape:connector-curvature="0" /><path
     style="fill:#88b72e"
     d="m 176.907,91.97 c -8.564,0.134 -15.473,6.503 -15.473,14.352 l 30.947,0 c 0.001,-7.849 -6.906,-14.219 -15.474,-14.352 z"
     id="path3552"
     inkscape:connector-curvature="0" /><path
     style="fill:#88b72e"
     d="m 207.852,120.673 c 8.568,-0.134 15.471,-6.503 15.471,-14.352 l -30.941,0 c 0,7.849 6.902,14.218 15.47,14.352 z"
     id="path3554"
     inkscape:connector-curvature="0" /><path
     style="fill:#88b72e"
     d="m 238.794,91.97 c -8.562,0.134 -15.471,6.503 -15.471,14.352 l 30.945,0 c 0,-7.849 -6.904,-14.219 -15.474,-14.352 z"
     id="path3556"
     inkscape:connector-curvature="0" /><path
     style="fill:#88b72e"
     d="m 269.743,120.673 c 8.568,-0.134 15.469,-6.503 15.469,-14.352 l -30.943,0 c -0.001,7.849 6.904,14.218 15.474,14.352 z"
     id="path3558"
     inkscape:connector-curvature="0" /><path
     style="fill:#88b72e"
     d="m 300.688,91.97 c -8.572,0.134 -15.477,6.503 -15.477,14.352 l 30.947,0 c 10e-4,-7.849 -6.905,-14.219 -15.47,-14.352 z"
     id="path3560"
     inkscape:connector-curvature="0" /><path
     style="fill:#88b72e"
     d="m 316.159,106.321 c 0,7.849 6.902,14.218 15.475,14.352 8.565,-0.134 15.469,-6.503 15.469,-14.352 l -30.944,0 z"
     id="path3562"
     inkscape:connector-curvature="0" /><path
     style="fill:#88b72e"
     d="m 22.184,197.594 c 8.568,0.132 15.473,6.501 15.473,14.352 l -30.943,0 c 0,-7.851 6.904,-14.22 15.47,-14.352 z"
     id="path3564"
     inkscape:connector-curvature="0" /><path
     style="fill:#88b72e"
     d="m 53.13,226.297 c -8.566,-0.136 -15.473,-6.505 -15.473,-14.352 l 30.943,0 c 0,7.847 -6.902,14.216 -15.47,14.352 z"
     id="path3566"
     inkscape:connector-curvature="0" /><path
     style="fill:#88b72e"
     d="m 84.073,197.594 c 8.57,0.132 15.473,6.501 15.473,14.352 l -30.945,0 c -0.001,-7.851 6.904,-14.22 15.472,-14.352 z"
     id="path3568"
     inkscape:connector-curvature="0" /><path
     style="fill:#88b72e"
     d="m 115.022,226.297 c -8.572,-0.136 -15.477,-6.505 -15.477,-14.352 l 30.945,0 c 0.001,7.847 -6.903,14.216 -15.468,14.352 z"
     id="path3570"
     inkscape:connector-curvature="0" /><path
     style="fill:#88b72e"
     d="m 145.964,197.594 c 8.568,0.132 15.471,6.501 15.471,14.352 l -30.943,0 c -10e-4,-7.851 6.901,-14.22 15.472,-14.352 z"
     id="path3572"
     inkscape:connector-curvature="0" /><path
     style="fill:#88b72e"
     d="m 176.907,226.297 c -8.564,-0.136 -15.473,-6.505 -15.473,-14.352 l 30.947,0 c 0.001,7.847 -6.906,14.216 -15.474,14.352 z"
     id="path3574"
     inkscape:connector-curvature="0" /><path
     style="fill:#88b72e"
     d="m 207.852,197.594 c 8.568,0.132 15.471,6.501 15.471,14.352 l -30.941,0 c 0,-7.851 6.902,-14.22 15.47,-14.352 z"
     id="path3576"
     inkscape:connector-curvature="0" /><path
     style="fill:#88b72e"
     d="m 238.794,226.297 c -8.562,-0.136 -15.471,-6.505 -15.471,-14.352 l 30.945,0 c 0,7.847 -6.904,14.216 -15.474,14.352 z"
     id="path3578"
     inkscape:connector-curvature="0" /><path
     style="fill:#88b72e"
     d="m 269.743,197.594 c 8.568,0.132 15.469,6.501 15.469,14.352 l -30.943,0 c -0.001,-7.851 6.904,-14.22 15.474,-14.352 z"
     id="path3580"
     inkscape:connector-curvature="0" /><path
     style="fill:#88b72e"
     d="m 300.688,226.297 c -8.572,-0.136 -15.477,-6.505 -15.477,-14.352 l 30.947,0 c 10e-4,7.847 -6.905,14.216 -15.47,14.352 z"
     id="path3582"
     inkscape:connector-curvature="0" /><path
     style="fill:#88b72e"
     d="m 316.159,211.945 c 0,-7.851 6.902,-14.22 15.475,-14.352 8.565,0.132 15.469,6.501 15.469,14.352 l -30.944,0 z"
     id="path3584"
     inkscape:connector-curvature="0" /><path
     style="fill:#a2331f"
     d="m 100.583,136.568 -13.398,0 -7.01,0 -7.004,0 -13.4,0 -19.779,0 37.065,29.094 0,-0.008 c 0.871,0.648 1.951,1.038 3.119,1.038 1.174,0 2.248,-0.39 3.125,-1.038 l 0,0.008 37.064,-29.094 -19.782,0 z"
     id="path3586"
     inkscape:connector-curvature="0" /><path
     style="fill:#a2331f"
     d="m 153.339,136.568 -9.605,0 -5.023,0 -5.027,0 -9.605,0 -14.182,0 26.572,20.861 0,-0.006 c 0.629,0.463 1.398,0.742 2.242,0.742 0.834,0 1.611,-0.279 2.234,-0.742 l 0,0.006 26.578,-20.861 -14.184,0 z"
     id="path3588"
     inkscape:connector-curvature="0" /><path
     style="fill:#dd7162"
     d="m 132.542,150.814 c 0.375,0.303 0.434,0.849 0.135,1.221 l 0,0 c -0.301,0.374 -0.848,0.434 -1.223,0.135 l -11.852,-9.529 c -0.373,-0.3 -0.434,-0.846 -0.129,-1.219 l 0,0 c 0.295,-0.375 0.842,-0.434 1.217,-0.134 l 11.852,9.526 z"
     id="path3590"
     inkscape:connector-curvature="0" /><path
     style="fill:#dd7162"
     d="m 71.583,156.437 c 0.514,0.42 0.602,1.181 0.182,1.701 l 0,0 c -0.416,0.523 -1.178,0.606 -1.703,0.188 L 53.531,145.038 c -0.52,-0.419 -0.602,-1.184 -0.182,-1.703 l 0,0 c 0.416,-0.52 1.178,-0.604 1.697,-0.186 l 16.537,13.288 z"
     id="path3592"
     inkscape:connector-curvature="0" /><ellipse
     style="fill:#efc84a"
     cx="98.039993"
     cy="18.760002"
     rx="6.822"
     ry="2.132"
     id="ellipse3594" /><ellipse
     style="fill:#efc84a"
     cx="136.698"
     cy="9.0950003"
     rx="6.822"
     ry="2.132"
     id="ellipse3596" /><ellipse
     style="fill:#efc84a"
     cx="162.284"
     cy="22.029007"
     rx="6.822"
     ry="2.131"
     id="ellipse3598" /><ellipse
     style="fill:#efc84a"
     cx="191.84299"
     cy="8.6689978"
     rx="6.822"
     ry="2.1300001"
     id="ellipse3600" /><path
     style="fill:#efc84a"
     d="m 227.372,22.312 c 0,1.177 -3.055,2.131 -6.818,2.131 -3.77,0 -6.822,-0.954 -6.822,-2.131 0,-1.178 3.053,-2.133 6.822,-2.133 3.763,0.001 6.818,0.956 6.818,2.133 z"
     id="path3602"
     inkscape:connector-curvature="0" /><path
     style="fill:#efc84a"
     d="m 252.677,14.07 c 0,1.176 -3.057,2.132 -6.826,2.132 -3.766,0 -6.82,-0.956 -6.82,-2.132 0,-1.178 3.055,-2.133 6.82,-2.133 3.769,0 6.826,0.956 6.826,2.133 z"
     id="path3604"
     inkscape:connector-curvature="0" /><g
     id="g3606"
     transform="translate(-79.091,-108.793)" /><g
     id="g3608"
     transform="translate(-79.091,-108.793)" /><g
     id="g3610"
     transform="translate(-79.091,-108.793)" /><g
     id="g3612"
     transform="translate(-79.091,-108.793)" /><g
     id="g3614"
     transform="translate(-79.091,-108.793)" /><g
     id="g3616"
     transform="translate(-79.091,-108.793)" /><g
     id="g3618"
     transform="translate(-79.091,-108.793)" /><g
     id="g3620"
     transform="translate(-79.091,-108.793)" /><g
     id="g3622"
     transform="translate(-79.091,-108.793)" /><g
     id="g3624"
     transform="translate(-79.091,-108.793)" /><g
     id="g3626"
     transform="translate(-79.091,-108.793)" /><g
     id="g3628"
     transform="translate(-79.091,-108.793)" /><g
     id="g3630"
     transform="translate(-79.091,-108.793)" /><g
     id="g3632"
     transform="translate(-79.091,-108.793)" /><g
     id="g3634"
     transform="translate(-79.091,-108.793)" /></svg>